<svg width="1412" height="214" viewBox="0 0 1412 214" fill="none" xmlns="http://www.w3.org/2000/svg">
<g clip-path="url(#clip0_460_10)">
<path d="M110.4 213.8C94.5996 213.8 79.9996 211.2 66.5996 206C53.1996 200.6 41.5996 193.1 31.7996 183.5C21.9996 173.9 14.2996 162.6 8.69961 149.6C3.29961 136.6 0.599609 122.4 0.599609 107C0.599609 91.6002 3.29961 77.4002 8.69961 64.4002C14.2996 51.4002 21.9996 40.1002 31.7996 30.5002C41.7996 20.9002 53.4996 13.5002 66.8996 8.30019C80.2996 2.90019 94.8996 0.200195 110.7 0.200195C125.9 0.200195 140.2 2.80019 153.6 8.0002C167 13.0002 178.3 20.6002 187.5 30.8002L173.4 44.9002C164.8 36.1002 155.3 29.8002 144.9 26.0002C134.5 22.0002 123.3 20.0002 111.3 20.0002C98.6996 20.0002 86.9996 22.2002 76.1996 26.6002C65.3996 30.8002 55.9996 36.9002 47.9996 44.9002C39.9996 52.7002 33.6996 61.9002 29.0996 72.5002C24.6996 82.9002 22.4996 94.4002 22.4996 107C22.4996 119.6 24.6996 131.2 29.0996 141.8C33.6996 152.2 39.9996 161.4 47.9996 169.4C55.9996 177.2 65.3996 183.3 76.1996 187.7C86.9996 191.9 98.6996 194 111.3 194C123.3 194 134.5 192 144.9 188C155.3 184 164.8 177.6 173.4 168.8L187.5 182.9C178.3 193.1 167 200.8 153.6 206C140.2 211.2 125.8 213.8 110.4 213.8ZM195.952 212L291.952 2.00019H313.852L409.852 212H386.452L298.252 14.9002H307.252L219.052 212H195.952ZM444.591 212V2.00019H530.091C552.491 2.00019 572.091 6.50019 588.891 15.5002C605.891 24.3002 619.091 36.6002 628.491 52.4002C637.891 68.2002 642.591 86.4002 642.591 107C642.591 127.6 637.891 145.8 628.491 161.6C619.091 177.4 605.891 189.8 588.891 198.8C572.091 207.6 552.491 212 530.091 212H444.591ZM466.791 192.8H528.891C547.491 192.8 563.591 189.2 577.191 182C590.991 174.6 601.691 164.5 609.291 151.7C616.891 138.7 620.691 123.8 620.691 107C620.691 90.0002 616.891 75.1002 609.291 62.3002C601.691 49.5002 590.991 39.5002 577.191 32.3002C563.591 24.9002 547.491 21.2002 528.891 21.2002H466.791V192.8ZM1089.21 213.8C1073.41 213.8 1058.81 211.2 1045.41 206C1032.01 200.6 1020.41 193.1 1010.61 183.5C1000.81 173.9 993.109 162.6 987.509 149.6C982.109 136.6 979.409 122.4 979.409 107C979.409 91.6002 982.109 77.4002 987.509 64.4002C993.109 51.4002 1000.81 40.1002 1010.61 30.5002C1020.61 20.9002 1032.31 13.5002 1045.71 8.30019C1059.11 2.90019 1073.71 0.200195 1089.51 0.200195C1104.71 0.200195 1119.01 2.80019 1132.41 8.0002C1145.81 13.0002 1157.11 20.6002 1166.31 30.8002L1152.21 44.9002C1143.61 36.1002 1134.11 29.8002 1123.71 26.0002C1113.31 22.0002 1102.11 20.0002 1090.11 20.0002C1077.51 20.0002 1065.81 22.2002 1055.01 26.6002C1044.21 30.8002 1034.81 36.9002 1026.81 44.9002C1018.81 52.7002 1012.51 61.9002 1007.91 72.5002C1003.51 82.9002 1001.31 94.4002 1001.31 107C1001.31 119.6 1003.51 131.2 1007.91 141.8C1012.51 152.2 1018.81 161.4 1026.81 169.4C1034.81 177.2 1044.21 183.3 1055.01 187.7C1065.81 191.9 1077.51 194 1090.11 194C1102.11 194 1113.31 192 1123.71 188C1134.11 184 1143.61 177.6 1152.21 168.8L1166.31 182.9C1157.11 193.1 1145.81 200.8 1132.41 206C1119.01 211.2 1104.61 213.8 1089.21 213.8ZM1301.04 213.8C1285.24 213.8 1270.54 211.2 1256.94 206C1243.54 200.6 1231.84 193.1 1221.84 183.5C1212.04 173.7 1204.34 162.4 1198.74 149.6C1193.34 136.6 1190.64 122.4 1190.64 107C1190.64 91.6002 1193.34 77.5002 1198.74 64.7002C1204.34 51.7002 1212.04 40.4002 1221.84 30.8002C1231.84 21.0002 1243.54 13.5002 1256.94 8.30019C1270.34 2.90019 1285.04 0.200195 1301.04 0.200195C1316.84 0.200195 1331.44 2.90019 1344.84 8.30019C1358.24 13.5002 1369.84 20.9002 1379.64 30.5002C1389.64 40.1002 1397.34 51.4002 1402.74 64.4002C1408.34 77.4002 1411.14 91.6002 1411.14 107C1411.14 122.4 1408.34 136.6 1402.74 149.6C1397.34 162.6 1389.64 173.9 1379.64 183.5C1369.84 193.1 1358.24 200.6 1344.84 206C1331.44 211.2 1316.84 213.8 1301.04 213.8ZM1301.04 194C1313.64 194 1325.24 191.9 1335.84 187.7C1346.64 183.3 1355.94 177.2 1363.74 169.4C1371.74 161.4 1377.94 152.2 1382.34 141.8C1386.74 131.2 1388.94 119.6 1388.94 107C1388.94 94.4002 1386.74 82.9002 1382.34 72.5002C1377.94 61.9002 1371.74 52.7002 1363.74 44.9002C1355.94 36.9002 1346.64 30.8002 1335.84 26.6002C1325.24 22.2002 1313.64 20.0002 1301.04 20.0002C1288.44 20.0002 1276.74 22.2002 1265.94 26.6002C1255.14 30.8002 1245.74 36.9002 1237.74 44.9002C1229.94 52.7002 1223.74 61.9002 1219.14 72.5002C1214.74 82.9002 1212.54 94.4002 1212.54 107C1212.54 119.4 1214.74 130.9 1219.14 141.5C1223.74 152.1 1229.94 161.4 1237.74 169.4C1245.74 177.2 1255.14 183.3 1265.94 187.7C1276.74 191.9 1288.44 194 1301.04 194Z" fill="black"/>
<path d="M658.842 212L754.842 2H776.742L872.742 212H849.342L761.142 14.9H770.142L681.942 212H658.842ZM907.481 212V2H929.681V212H907.481Z" fill="#D9ED87" fill-opacity="0.666667"/>
</g>
<defs>
<clipPath id="clip0_460_10">
<rect width="1412" height="214" fill="white"/>
</clipPath>
</defs>
</svg>
